# xmcd
#
# Track frame offsets:
# 150
# 10176
# 21266
# 32753
# 43960
# 53563
# 65667
# 77146
# 90438
# 102341
#
# Disc length: 1579 seconds
#
#
# Revision: 0
# Processed by: cddbd v1.5.2PL0 Copyright (c) Steve Scherf et al.
# Submitted via: FreeRIP 2.945 
#
DISCID=7906290a
DTITLE=Bill Anderson - Country Style
DYEAR=1900
DGENRE=Country
TTITLE0=Columbus Stockade Blues
TTITLE1=As Long as I Live
TTITLE2=Ninety-nine
TTITLE3=Walk Out Backwards
TTITLE4=Yonder Comes a Sucker
TTITLE5=Worried Man Blues
TTITLE6=Thrill of My Life
TTITLE7=Blue Eyes Crying in the Rain
TTITLE8=It's Not the End of Everything
TTITLE9=Wedding Bells
EXTD=
EXTT0=
EXTT1=
EXTT2=
EXTT3=
EXTT4=
EXTT5=
EXTT6=
EXTT7=
EXTT8=
EXTT9=
PLAYORDER=
